<svg width="307" height="284" viewBox="0 0 307 284" fill="none" xmlns="http://www.w3.org/2000/svg">
<path d="M146.089 95.668C131.414 102.747 134.71 119.505 138.193 127C127.114 127 116.488 108.046 112.56 98.5691C101.181 99.5845 75.4595 99.1203 63.6028 89.1404C48.782 76.6657 49.2679 39.6764 66.5184 13.7115C83.7688 -12.2535 225.174 9.50484 248.377 10.0851C271.58 10.6653 286.523 39.0962 272.674 80.292C258.825 121.488 164.433 86.8196 146.089 95.668Z" fill="white" stroke="#B1CCFF" stroke-width="2"/>
<path d="M177.528 244.139L184.158 246.689L194.421 239.194L163.616 196.325L130.183 170.002L177.528 244.139Z" fill="#808080"/>
<rect x="145.301" y="207.374" width="11.1564" height="6.3013" transform="rotate(-119.719 145.301 207.374)" fill="#C4C4C4"/>
<path d="M155.277 177.511L153.238 181.108L154.699 183.666L156.325 179.346L155.277 177.511Z" fill="#A7A7A7"/>
<rect x="138.337" y="195.174" width="11.1564" height="6.3013" transform="rotate(-119.719 138.337 195.174)" fill="#C4C4C4"/>
<path d="M187.769 251.764L183.85 246.983C194.138 236.709 203.529 233.202 206.939 232.733L209.115 236.546C198.288 242.25 190.373 249.068 187.769 251.764Z" fill="#A7A7A7"/>
<path d="M146.648 218.59L123.419 182.22C124.717 178.576 128.326 178.209 129.968 178.481L152.749 215.107C152.088 218.41 148.407 218.805 146.648 218.59Z" fill="#A7A7A7"/>
<path d="M125.762 157.985L107.74 130.27C108.742 124.44 113.465 124.811 115.702 125.725L134.207 154.235L125.762 157.985Z" fill="#9B9B9B"/>
<path d="M135.087 160.782L125.614 146.214C126.14 143.15 128.623 143.345 129.798 143.825L139.525 158.811L135.087 160.782Z" fill="#A7A7A7"/>
<path d="M122.285 167.106L124.561 163.488L129.861 172.773L126.024 173.655L122.285 167.106Z" fill="#C4C4C4"/>
<path d="M124.076 158.888L126.352 155.269L131.652 164.555L127.815 165.437L124.076 158.888Z" fill="#C4C4C4"/>
<path fill-rule="evenodd" clip-rule="evenodd" d="M155.034 183.872L160.952 192.701C161.249 191.085 162.219 188.106 163.728 189.124C165.614 190.397 177.909 188.077 179.463 186.476C181.017 184.875 174.276 167.491 171.475 170.607C168.681 173.714 143.357 166.373 142.92 165.8L142.917 165.796C142.918 165.797 142.919 165.799 142.92 165.8L148.409 173.988C155.39 175.276 166.173 176.858 169.143 175.642C173.632 173.804 174.018 180.429 171.587 181.381C169.55 182.179 159.168 183.724 155.034 183.872ZM134.403 152.13L136.444 150.965L144.962 163.231L142.316 164.742L134.403 152.13Z" fill="#A7A7A7"/>
<path d="M206.811 232.925L194.997 240.62L163.769 196.594L158.364 199.68L165.97 211.545L159.997 215.876L158.943 216.478L155.071 214.227L123.725 163.846L125.228 162.988C125.669 162.737 126.705 162.002 127.32 161.08C127.936 160.158 126.128 156.527 125.148 154.827L134.839 151.644L149.285 173.669C154.873 182.364 166.677 199.865 169.191 200.309C172.333 200.865 179.708 205.814 184.283 209.298C187.944 212.085 185.973 214.984 184.53 216.085C185.746 220.173 195.543 223.448 200.289 224.574L206.811 232.925Z" fill="#9B9B9B"/>
<path d="M130.967 173.75C140.489 173.75 146.653 177.256 148.544 179.009C156.739 196.528 127.777 209.394 125.404 212.799C123.031 216.205 118.358 211.285 115.948 211.285C113.538 211.285 113.389 209.772 109.125 208.258C104.86 206.745 107.271 200.918 103.192 200.35C99.1125 199.783 100.967 196.566 96.7392 195.242C92.5118 193.918 96.5538 190.172 91.7331 189.415C86.9123 188.658 91.3622 185.442 87.654 183.928C83.9457 182.415 85.2066 180.417 85.2066 177.117C85.2066 171.593 111.312 151.879 111.313 154.187C120.42 155.458 128.21 167.758 130.967 173.75Z" fill="white"/>
<path d="M3.32566 120C97.5302 120 98.9555 152.027 109.374 153.446C117.609 156.678 124.807 166.514 87.7229 180C84.3293 178.649 86.3994 176.959 82.3271 176.791C78.2549 176.622 83.6846 169.392 75.3704 172.095C67.0562 174.797 69.6353 170.912 64.2057 170.912C59.8619 170.912 60.3823 168.885 61.1854 167.872C59.8846 168.378 56.4005 168.885 52.8713 166.858C50.0465 165.236 52.9957 163.281 54.5474 162.475C50.9743 163.94 43.0607 160.639 41.3672 158.953C40.4094 157.999 43.1818 156.831 45.2598 156.176C40.9762 156.487 31.6927 155.005 30.3043 153.446C29.0283 152.014 33.3245 149.561 35.6321 148.514C31.1187 148.739 21.8883 148.851 21.0738 147.5C20.3805 146.35 25.0809 143.943 28.6017 142.405C22.1407 144.781 16.7002 142.995 14.6601 141.689C21.7639 137.601 33.9829 130.554 26.0284 135.068C18.074 139.581 12.3072 136.948 10.4181 135.068C17.3636 133.187 28.9808 129.426 19.8861 129.426C10.7914 129.426 2.83926 127.218 0 126.115C8.51777 125.484 23.3747 124.128 14.6601 123.75C5.94547 123.372 3.47272 121.092 3.32566 120Z" fill="white"/>
<path d="M176.033 172.75C166.511 172.75 160.347 176.256 158.456 178.009C150.261 195.528 179.223 208.394 181.596 211.799C183.969 215.205 188.642 210.285 191.052 210.285C193.462 210.285 193.611 208.772 197.875 207.258C202.14 205.745 199.729 199.918 203.808 199.35C207.887 198.783 206.033 195.566 210.261 194.242C214.488 192.918 210.446 189.172 215.267 188.415C220.088 187.658 215.638 184.442 219.346 182.928C223.054 181.415 221.793 179.417 221.793 176.117C221.793 170.593 195.688 150.879 195.687 153.187C186.58 154.458 178.79 166.758 176.033 172.75Z" fill="white"/>
<path d="M303.674 117C209.47 117 208.045 150.095 197.626 151.561C189.391 154.901 182.193 165.064 219.277 179C222.671 177.604 220.601 175.858 224.673 175.684C228.745 175.509 223.315 168.038 231.63 170.831C239.944 173.624 237.365 169.609 242.794 169.609C247.138 169.609 246.618 167.515 245.815 166.467C247.115 166.991 250.599 167.515 254.129 165.42C256.953 163.744 254.004 161.724 252.453 160.891C256.026 162.405 263.939 158.993 265.633 157.251C266.591 156.266 263.818 155.058 261.74 154.381C266.024 154.703 275.307 153.171 276.696 151.561C277.972 150.081 273.675 147.546 271.368 146.464C275.881 146.697 285.112 146.813 285.926 145.417C286.619 144.228 281.919 141.741 278.398 140.151C284.859 142.607 290.3 140.761 292.34 139.412C285.236 135.188 273.017 127.906 280.972 132.57C288.926 137.234 294.693 134.513 296.582 132.57C289.636 130.627 278.019 126.74 287.114 126.74C296.209 126.74 304.161 124.459 307 123.319C298.482 122.667 283.625 121.266 292.34 120.875C301.055 120.484 303.527 118.129 303.674 117Z" fill="white"/>
<path d="M133.455 178.767C140.095 174.647 146.246 138.789 148.492 121.375C155.241 120.337 167.81 118.885 164.088 121.375C159.435 124.487 160.44 129.637 157.35 145.68C154.261 161.723 164.088 174.098 177.078 183.398C190.068 192.698 179.125 223.191 168.74 242.828C158.355 262.465 148.492 260.946 129.807 255.24C111.122 249.534 116.817 230.971 116.817 210.816C116.817 190.66 125.154 183.917 133.455 178.767Z" fill="white"/>
<path d="M129.079 267.551C134.538 257.748 132.635 252.658 131.001 251.338C127.549 249.867 127.314 253.186 127.039 261.481C126.765 269.776 123.47 274.376 121.705 276.375C119.94 278.373 110.331 281.766 112.253 282.445C113.79 282.988 117.077 281.264 118.528 280.334C117.116 282.747 115.775 286.412 121.705 281.766C129.118 275.96 137.864 280.975 138.806 280.334C139.559 279.821 137.943 278.536 137.041 277.958C135.668 277.732 132.154 277.099 129.079 276.375C126.004 275.651 127.798 270.191 129.079 267.551Z" fill="#FF6B0A"/>
<path d="M155.554 267.551C150.296 257.748 152.129 252.658 153.703 251.338C157.027 249.867 157.253 253.186 157.518 261.481C157.782 269.776 160.955 274.376 162.654 276.375C164.354 278.373 173.607 281.766 171.757 282.445C170.276 282.988 167.111 281.264 165.714 280.334C167.073 282.747 168.365 286.412 162.654 281.766C155.516 275.96 147.094 280.975 146.187 280.334C145.462 279.821 147.018 278.536 147.887 277.958C149.209 277.732 152.593 277.099 155.554 276.375C158.515 275.651 156.788 270.191 155.554 267.551Z" fill="#FF6B0A"/>
<path d="M149.178 107.247C149.386 101.904 154.508 101.88 157.044 102.535C163.871 101.009 162.943 110.401 164.501 112.33C166.06 114.26 165.948 116.152 165.429 121.791C164.909 127.431 157.044 132.403 152.999 131.846C148.955 131.29 146.321 125.576 144.725 119.825C143.13 114.074 148.918 113.926 149.178 107.247Z" fill="white"/>
<ellipse rx="1.33452" ry="2.0971" transform="matrix(-0.978865 0.204508 0.204508 0.978865 163.102 109.532)" fill="#0D070C"/>
<ellipse cx="148.973" cy="109.767" rx="1.33452" ry="2.0971" transform="rotate(6.93695 148.973 109.767)" fill="#0D070C"/>
<ellipse cx="162.207" cy="119.446" rx="3.2252" ry="4.5429" transform="rotate(22.9491 162.207 119.446)" fill="url(#paint0_radial_19332_1266)"/>
<ellipse cx="148.546" cy="118.983" rx="3.2252" ry="4.5429" transform="rotate(-35.1816 148.546 118.983)" fill="url(#paint1_radial_19332_1266)"/>
<ellipse opacity="0.2" rx="0.598251" ry="0.940109" transform="matrix(-0.895075 0.445916 0.445916 0.895075 149.024 109.068)" fill="white"/>
<ellipse opacity="0.2" rx="0.598251" ry="0.940109" transform="matrix(-0.895075 0.445916 0.445916 0.895075 163.136 108.681)" fill="white"/>
<path d="M161.476 112.949C161.5 106.308 155.094 105.471 155.125 105.552C148.804 107.537 149.621 113.226 149.884 114.062C150.606 116.363 146.816 118.584 148.078 120.96C149.339 123.336 149.538 128.388 150.64 131.871C151.316 134.006 152.231 134.757 152.862 134.931C152.696 134.94 152.766 134.945 152.934 134.949C153.096 134.984 153.238 134.98 153.347 134.952C153.193 134.952 153.043 134.951 152.934 134.949C152.91 134.944 152.887 134.938 152.862 134.931C153.081 134.92 153.709 134.903 155.061 134.88C158.875 134.813 158.901 129.803 161.944 123.949C164.987 118.096 161.447 121.251 161.476 112.949Z" fill="#FF6B0A"/>
<path d="M154.958 132.451C157.995 132.055 158.691 125.248 158.66 121.894C156.77 121.561 152.685 121.156 151.47 122.2C149.951 123.504 151.163 132.946 154.958 132.451Z" fill="#1F0C02"/>
<path d="M154.303 131.62C152.158 131.444 152.633 126.746 153.138 124.419L157.281 124.243C157.182 126.775 156.447 131.796 154.303 131.62Z" fill="#956C7C"/>
<path d="M154.468 129.939C154.014 129.643 154.461 124.995 154.742 122.708L155.656 122.766C155.449 125.281 154.922 130.235 154.468 129.939Z" fill="#86616F"/>
<path d="M159.789 119.27C157.546 114.977 158.643 112.497 159.472 111.794C156.092 107.702 152.508 110.325 151.138 112.148C153.749 116.331 151.794 112.979 150.503 119.665C149.471 125.013 153.043 126.665 154.958 126.822C157.503 126.094 162.032 123.564 159.789 119.27Z" fill="#EA5F03"/>
<path d="M150.337 121.886C154.932 115.05 158.738 119.748 160.066 122.951C159.679 124.304 158.091 126.976 154.841 126.847C151.592 126.717 150.485 123.486 150.337 121.886Z" fill="#EFE5D5"/>
<path d="M155.744 120.82C155.773 120.253 155.92 119.201 156.271 119.526C156.622 119.852 156.066 120.524 155.744 120.82Z" fill="#DACAB0"/>
<path d="M154.67 120.867C154.682 120.3 154.612 119.24 154.238 119.539C153.864 119.838 154.371 120.549 154.67 120.867Z" fill="#DACAB0"/>
<path d="M151.853 98.3969L151.627 103.251C154.382 105.684 159.24 104.542 161.325 103.667L161.482 98.718L151.853 98.3969Z" fill="#373500"/>
<path d="M151.627 103.251C152.349 105.838 155.347 109.301 161.314 103.632L151.627 103.251Z" fill="#373500"/>
<ellipse rx="4.82508" ry="0.831725" transform="matrix(-0.99961 -0.0279109 -0.0279109 0.99961 156.656 98.5588)" fill="#373500"/>
<path d="M151.853 98.3969L151.627 103.251C154.382 105.684 159.24 104.542 161.325 103.667L161.482 98.718C161.482 98.718 160.703 98.8593 160.2 98.8482C159.598 98.8348 158.679 98.5868 158.679 98.5868L155.883 102.809L154.46 98.2783C154.46 98.2783 153.686 98.6697 153.151 98.6895C152.632 98.7087 151.853 98.3969 151.853 98.3969Z" fill="#4B4800"/>
<path d="M156.958 99.1298C156.935 99.1415 156.915 99.1501 156.898 99.1612C156.751 99.2496 156.657 99.3594 156.611 99.5227C156.591 99.5919 156.579 99.6642 156.565 99.7339C156.552 99.7955 156.539 99.8561 156.524 99.9176C156.521 99.9336 156.522 99.9407 156.541 99.9448C156.58 99.9521 156.612 99.9739 156.624 100.014C156.636 100.048 156.627 100.08 156.604 100.106C156.58 100.133 156.547 100.141 156.512 100.139C156.495 100.137 156.484 100.129 156.476 100.112C156.415 99.9828 156.385 99.847 156.381 99.7044C156.378 99.5865 156.399 99.4707 156.415 99.3557C156.423 99.2901 156.43 99.2231 156.441 99.1578C156.447 99.1164 156.45 99.0771 156.443 99.0356C156.437 98.9942 156.422 98.9555 156.396 98.9192C156.363 98.9474 156.339 98.9824 156.327 99.0221C156.317 99.0595 156.31 99.0997 156.306 99.1377C156.3 99.1791 156.301 99.2212 156.298 99.2617C156.291 99.3694 156.286 99.4773 156.275 99.5847C156.257 99.7635 156.195 99.9266 156.089 100.071C156.075 100.091 156.058 100.095 156.036 100.091C155.981 100.081 155.943 100.034 155.948 99.9819C155.953 99.9334 156 99.8937 156.055 99.8967C156.075 99.8974 156.077 99.8906 156.076 99.8742C156.074 99.7889 156.073 99.7026 156.072 99.6174C156.069 99.5204 156.073 99.424 156.042 99.3301C156.001 99.2061 155.932 99.119 155.829 99.0379C155.821 99.0325 155.813 99.0271 155.802 99.019C155.801 99.0294 155.801 99.0364 155.8 99.0433C155.757 99.4902 155.715 99.9186 155.672 100.365C155.669 100.391 155.669 100.391 155.694 100.393C155.786 100.402 155.879 100.411 155.97 100.42C155.987 100.422 155.993 100.427 155.995 100.443C156.01 100.568 156.063 100.676 156.157 100.762C156.176 100.78 156.193 100.803 156.21 100.823C156.269 100.768 156.346 100.734 156.397 100.668C156.438 100.613 156.473 100.555 156.493 100.489C156.498 100.474 156.505 100.471 156.519 100.472C156.613 100.481 156.706 100.49 156.8 100.499C156.816 100.501 156.824 100.498 156.825 100.479C156.869 100.03 156.911 99.5984 156.954 99.1492C156.957 99.1471 156.957 99.1425 156.958 99.1298ZM156.836 99.3254C156.838 99.3268 156.842 99.3271 156.844 99.3285C156.843 99.3366 156.843 99.3447 156.842 99.3528C156.821 99.5687 156.802 99.7673 156.781 99.9832C156.777 100.019 156.777 100.019 156.74 100.015C156.726 100.014 156.72 100.01 156.717 99.9958C156.708 99.9517 156.683 99.9167 156.647 99.8922C156.631 99.8813 156.63 99.8707 156.634 99.8548C156.652 99.7761 156.671 99.6964 156.686 99.6174C156.702 99.5351 156.727 99.4745 156.776 99.4058C156.795 99.3774 156.816 99.3526 156.836 99.3254ZM155.879 99.2362C155.881 99.2365 155.882 99.2354 155.884 99.2356C155.891 99.2455 155.897 99.2555 155.902 99.2653C155.94 99.3389 155.972 99.3968 155.976 99.4799C155.98 99.5852 155.981 99.6902 155.984 99.7954C155.985 99.8095 155.981 99.8184 155.966 99.8251C155.925 99.8433 155.894 99.8718 155.875 99.9131C155.866 99.932 155.853 99.9354 155.823 99.9267C155.805 99.9215 155.814 99.9083 155.815 99.8979C155.836 99.6785 155.855 99.4764 155.877 99.2559C155.876 99.2488 155.877 99.2419 155.879 99.2362ZM156.52 100.235C156.525 100.235 156.533 100.234 156.541 100.233C156.616 100.224 156.676 100.193 156.707 100.121C156.711 100.111 156.716 100.106 156.726 100.109C156.735 100.109 156.743 100.11 156.751 100.111C156.763 100.112 156.767 100.117 156.766 100.129C156.757 100.215 156.749 100.303 156.739 100.389C156.739 100.394 156.728 100.404 156.724 100.403C156.661 100.398 156.597 100.392 156.534 100.385C156.53 100.384 156.521 100.375 156.521 100.371C156.52 100.326 156.52 100.282 156.52 100.235ZM156.022 100.187C156.013 100.233 156.003 100.276 155.994 100.321C155.992 100.333 155.982 100.333 155.973 100.332C155.914 100.326 155.856 100.319 155.796 100.315C155.778 100.313 155.773 100.305 155.776 100.288C155.784 100.211 155.791 100.133 155.798 100.055C155.802 100.019 155.802 100.019 155.838 100.023C155.848 100.024 155.857 100.024 155.86 100.037C155.874 100.108 155.92 100.149 155.984 100.175C155.997 100.18 156.011 100.183 156.022 100.187ZM156.3 99.8854C156.324 99.9775 156.348 100.067 156.39 100.153C156.352 100.174 156.316 100.194 156.279 100.212C156.274 100.215 156.263 100.212 156.257 100.208C156.229 100.186 156.203 100.163 156.174 100.141C156.166 100.135 156.164 100.129 156.171 100.119C156.221 100.053 156.257 99.9792 156.29 99.9031C156.294 99.8977 156.297 99.891 156.3 99.8854ZM156.396 100.462C156.394 100.523 156.319 100.637 156.279 100.648C156.278 100.647 156.277 100.645 156.277 100.645C156.283 100.585 156.287 100.525 156.294 100.466C156.295 100.462 156.304 100.456 156.308 100.455C156.338 100.456 156.366 100.459 156.396 100.462ZM156.181 100.641C156.134 100.607 156.088 100.478 156.101 100.433C156.126 100.435 156.154 100.438 156.18 100.44C156.195 100.442 156.199 100.448 156.197 100.462C156.193 100.51 156.188 100.559 156.183 100.607C156.183 100.618 156.182 100.628 156.181 100.641ZM156.364 100.367C156.349 100.366 156.332 100.365 156.317 100.361C156.313 100.361 156.304 100.351 156.306 100.348C156.318 100.297 156.354 100.257 156.404 100.25C156.415 100.249 156.421 100.251 156.422 100.262C156.424 100.294 156.424 100.325 156.426 100.358C156.426 100.37 156.418 100.374 156.408 100.373C156.394 100.37 156.379 100.369 156.364 100.367ZM156.15 100.346C156.136 100.345 156.123 100.344 156.109 100.343C156.095 100.342 156.088 100.336 156.091 100.321C156.098 100.292 156.104 100.264 156.111 100.235C156.115 100.222 156.122 100.219 156.136 100.225C156.179 100.242 156.214 100.293 156.211 100.338C156.21 100.343 156.201 100.35 156.196 100.351C156.18 100.351 156.165 100.348 156.15 100.346Z" fill="#FFD500"/>
<path d="M141.066 161.794C148.597 164.522 154.772 162.087 158.393 160.421L159.283 162.981C151.128 167.339 144.022 165.832 140.435 164.205L141.066 161.794Z" fill="#005BBB"/>
<path d="M140.398 164.354C149.425 167.962 155.712 164.72 159.357 163.092L160.396 165.652C152.172 169.925 143.349 168.066 139.804 166.394L140.398 164.354Z" fill="#FFD500"/>
<path d="M139.997 165.899C134.664 165.885 125.6 169.667 131.942 183.51C138.237 197.25 138.917 206.41 135.025 205.204C134.997 205.194 134.968 205.184 134.938 205.176C134.967 205.186 134.996 205.195 135.025 205.204C136.1 205.619 135.409 207.839 135.917 208.614C140.336 208.91 141.128 200.36 132.626 183.229C130.619 178.634 129.806 169.195 139.304 168.204L139.997 165.899Z" fill="#FFD500"/>
<path d="M140.986 162.564C135.624 161.663 129.671 161.919 134.46 177.033C139.201 191.993 132.87 191.822 129.003 189.824C128.966 189.802 128.926 189.781 128.883 189.762C128.923 189.783 128.963 189.804 129.003 189.824C129.948 190.398 128.633 191.757 129.05 192.618C133.461 193.653 140.861 191.95 135.18 176.862C133.689 171.861 130.731 163.894 140.398 164.466L140.986 162.564Z" fill="#005BBB"/>
<path d="M116.5 211.5C159.807 239.401 167.893 198.168 166.273 174.15L169 173H172.283C176.291 236.461 135.311 232.838 116.5 220V211.5Z" fill="#9B9B9B"/>
<path d="M100.648 29.9609L103.492 22.625H105.828L101.906 31.8672C101.776 32.1641 101.628 32.4505 101.461 32.7266C101.294 33.0026 101.094 33.25 100.859 33.4688C100.63 33.6823 100.352 33.8516 100.023 33.9766C99.7005 34.1016 99.3099 34.1641 98.8516 34.1641C98.7318 34.1641 98.5885 34.1589 98.4219 34.1484C98.2552 34.1432 98.1276 34.1354 98.0391 34.125V32.4375C98.1016 32.4531 98.2031 32.4635 98.3438 32.4688C98.4896 32.474 98.5938 32.4766 98.6562 32.4766C98.9583 32.4766 99.1979 32.4297 99.375 32.3359C99.5573 32.237 99.7005 32.1042 99.8047 31.9375C99.9141 31.7656 100.01 31.5703 100.094 31.3516L100.648 29.9609ZM98.6328 22.625L101.359 28.5859L102 30.9062L100.367 30.9531L96.3047 22.625H98.6328ZM114.633 29.9688H112.984V28.9844H114.242C114.549 28.9844 114.794 28.9427 114.977 28.8594C115.164 28.776 115.297 28.6589 115.375 28.5078C115.458 28.3568 115.5 28.1823 115.5 27.9844C115.5 27.8073 115.461 27.6406 115.383 27.4844C115.305 27.3229 115.174 27.1927 114.992 27.0938C114.81 26.9896 114.557 26.9375 114.234 26.9375C113.969 26.9375 113.732 26.9792 113.523 27.0625C113.315 27.1458 113.151 27.263 113.031 27.4141C112.911 27.5651 112.852 27.7448 112.852 27.9531H110.781C110.781 27.4219 110.932 26.9661 111.234 26.5859C111.542 26.2057 111.951 25.9141 112.461 25.7109C112.971 25.5026 113.531 25.3984 114.141 25.3984C114.667 25.3984 115.141 25.4531 115.562 25.5625C115.984 25.6667 116.344 25.8229 116.641 26.0312C116.938 26.2396 117.167 26.4974 117.328 26.8047C117.49 27.1068 117.57 27.4583 117.57 27.8594C117.57 28.1458 117.503 28.4167 117.367 28.6719C117.232 28.9271 117.036 29.1536 116.781 29.3516C116.526 29.5443 116.216 29.6953 115.852 29.8047C115.492 29.9141 115.086 29.9688 114.633 29.9688ZM112.984 29.4062H114.633C115.138 29.4062 115.581 29.4557 115.961 29.5547C116.346 29.6484 116.669 29.7891 116.93 29.9766C117.19 30.1641 117.385 30.3958 117.516 30.6719C117.651 30.9427 117.719 31.2552 117.719 31.6094C117.719 32.0104 117.63 32.3698 117.453 32.6875C117.281 33 117.036 33.2656 116.719 33.4844C116.401 33.7031 116.023 33.8698 115.586 33.9844C115.148 34.099 114.667 34.1562 114.141 34.1562C113.573 34.1562 113.021 34.0625 112.484 33.875C111.953 33.6875 111.513 33.3984 111.164 33.0078C110.82 32.6172 110.648 32.1146 110.648 31.5H112.719C112.719 31.6979 112.779 31.8828 112.898 32.0547C113.018 32.2266 113.19 32.3646 113.414 32.4688C113.643 32.5677 113.919 32.6172 114.242 32.6172C114.57 32.6172 114.839 32.5651 115.047 32.4609C115.255 32.3568 115.406 32.2188 115.5 32.0469C115.599 31.8698 115.648 31.6849 115.648 31.4922C115.648 31.2266 115.596 31.013 115.492 30.8516C115.393 30.6849 115.237 30.5625 115.023 30.4844C114.815 30.4062 114.555 30.3672 114.242 30.3672H112.984V29.4062ZM123.867 32.2031V28.3047C123.867 28.0182 123.818 27.7708 123.719 27.5625C123.62 27.3542 123.469 27.1927 123.266 27.0781C123.062 26.9635 122.805 26.9062 122.492 26.9062C122.216 26.9062 121.974 26.9531 121.766 27.0469C121.562 27.1406 121.406 27.2734 121.297 27.4453C121.188 27.612 121.133 27.8047 121.133 28.0234H119.062C119.062 27.6745 119.146 27.3438 119.312 27.0312C119.479 26.7135 119.716 26.4323 120.023 26.1875C120.336 25.9375 120.708 25.7422 121.141 25.6016C121.578 25.4609 122.068 25.3906 122.609 25.3906C123.25 25.3906 123.82 25.5 124.32 25.7188C124.826 25.9323 125.221 26.2552 125.508 26.6875C125.799 27.1198 125.945 27.6641 125.945 28.3203V32.0078C125.945 32.4297 125.971 32.7917 126.023 33.0938C126.081 33.3906 126.164 33.6484 126.273 33.8672V34H124.172C124.073 33.7865 123.997 33.5156 123.945 33.1875C123.893 32.8542 123.867 32.526 123.867 32.2031ZM124.156 28.8516L124.172 30.0781H122.867C122.544 30.0781 122.26 30.112 122.016 30.1797C121.771 30.2422 121.57 30.3359 121.414 30.4609C121.258 30.5807 121.141 30.7266 121.062 30.8984C120.984 31.0651 120.945 31.2552 120.945 31.4688C120.945 31.6771 120.992 31.8646 121.086 32.0312C121.185 32.1979 121.326 32.3307 121.508 32.4297C121.695 32.5234 121.914 32.5703 122.164 32.5703C122.529 32.5703 122.846 32.4974 123.117 32.3516C123.388 32.2005 123.599 32.0182 123.75 31.8047C123.901 31.5911 123.982 31.388 123.992 31.1953L124.586 32.0859C124.513 32.2995 124.404 32.526 124.258 32.7656C124.112 33.0052 123.924 33.2292 123.695 33.4375C123.466 33.6458 123.19 33.8177 122.867 33.9531C122.544 34.0885 122.169 34.1562 121.742 34.1562C121.195 34.1562 120.706 34.0469 120.273 33.8281C119.841 33.6094 119.5 33.3099 119.25 32.9297C119 32.5495 118.875 32.1172 118.875 31.6328C118.875 31.1849 118.958 30.7891 119.125 30.4453C119.292 30.1016 119.539 29.8125 119.867 29.5781C120.195 29.3385 120.602 29.1589 121.086 29.0391C121.576 28.9141 122.135 28.8516 122.766 28.8516H124.156ZM133.477 25.5469V27.1797H129.344V25.5469H133.477ZM129.891 25.5469V34H127.82V25.5469H129.891ZM135.039 25.5469V34H132.961V25.5469H135.039ZM141.57 32.2031V28.3047C141.57 28.0182 141.521 27.7708 141.422 27.5625C141.323 27.3542 141.172 27.1927 140.969 27.0781C140.766 26.9635 140.508 26.9062 140.195 26.9062C139.919 26.9062 139.677 26.9531 139.469 27.0469C139.266 27.1406 139.109 27.2734 139 27.4453C138.891 27.612 138.836 27.8047 138.836 28.0234H136.766C136.766 27.6745 136.849 27.3438 137.016 27.0312C137.182 26.7135 137.419 26.4323 137.727 26.1875C138.039 25.9375 138.411 25.7422 138.844 25.6016C139.281 25.4609 139.771 25.3906 140.312 25.3906C140.953 25.3906 141.523 25.5 142.023 25.7188C142.529 25.9323 142.924 26.2552 143.211 26.6875C143.503 27.1198 143.648 27.6641 143.648 28.3203V32.0078C143.648 32.4297 143.674 32.7917 143.727 33.0938C143.784 33.3906 143.867 33.6484 143.977 33.8672V34H141.875C141.776 33.7865 141.701 33.5156 141.648 33.1875C141.596 32.8542 141.57 32.526 141.57 32.2031ZM141.859 28.8516L141.875 30.0781H140.57C140.247 30.0781 139.964 30.112 139.719 30.1797C139.474 30.2422 139.273 30.3359 139.117 30.4609C138.961 30.5807 138.844 30.7266 138.766 30.8984C138.688 31.0651 138.648 31.2552 138.648 31.4688C138.648 31.6771 138.695 31.8646 138.789 32.0312C138.888 32.1979 139.029 32.3307 139.211 32.4297C139.398 32.5234 139.617 32.5703 139.867 32.5703C140.232 32.5703 140.549 32.4974 140.82 32.3516C141.091 32.2005 141.302 32.0182 141.453 31.8047C141.604 31.5911 141.685 31.388 141.695 31.1953L142.289 32.0859C142.216 32.2995 142.107 32.526 141.961 32.7656C141.815 33.0052 141.628 33.2292 141.398 33.4375C141.169 33.6458 140.893 33.8177 140.57 33.9531C140.247 34.0885 139.872 34.1562 139.445 34.1562C138.898 34.1562 138.409 34.0469 137.977 33.8281C137.544 33.6094 137.203 33.3099 136.953 32.9297C136.703 32.5495 136.578 32.1172 136.578 31.6328C136.578 31.1849 136.661 30.7891 136.828 30.4453C136.995 30.1016 137.242 29.8125 137.57 29.5781C137.898 29.3385 138.305 29.1589 138.789 29.0391C139.279 28.9141 139.839 28.8516 140.469 28.8516H141.859ZM148.977 32.5312C149.268 32.5312 149.529 32.474 149.758 32.3594C149.987 32.2448 150.169 32.0833 150.305 31.875C150.445 31.6667 150.521 31.4245 150.531 31.1484H152.477C152.466 31.7214 152.305 32.2344 151.992 32.6875C151.68 33.1406 151.263 33.5 150.742 33.7656C150.227 34.026 149.648 34.1562 149.008 34.1562C148.357 34.1562 147.789 34.0469 147.305 33.8281C146.82 33.6094 146.417 33.3047 146.094 32.9141C145.776 32.5234 145.536 32.0703 145.375 31.5547C145.219 31.0391 145.141 30.487 145.141 29.8984V29.6484C145.141 29.0599 145.219 28.5078 145.375 27.9922C145.536 27.4766 145.776 27.0234 146.094 26.6328C146.417 26.2422 146.82 25.9375 147.305 25.7188C147.789 25.5 148.354 25.3906 149 25.3906C149.682 25.3906 150.281 25.5234 150.797 25.7891C151.318 26.0547 151.724 26.4297 152.016 26.9141C152.312 27.3984 152.466 27.9688 152.477 28.625H150.531C150.521 28.3229 150.453 28.0521 150.328 27.8125C150.203 27.5729 150.026 27.3802 149.797 27.2344C149.568 27.0885 149.289 27.0156 148.961 27.0156C148.612 27.0156 148.32 27.0885 148.086 27.2344C147.857 27.3802 147.677 27.5807 147.547 27.8359C147.422 28.0859 147.333 28.3672 147.281 28.6797C147.234 28.987 147.211 29.3099 147.211 29.6484V29.8984C147.211 30.2422 147.234 30.5703 147.281 30.8828C147.333 31.1953 147.422 31.4766 147.547 31.7266C147.677 31.9714 147.857 32.1667 148.086 32.3125C148.32 32.4583 148.617 32.5312 148.977 32.5312ZM156.039 25.5469V34H153.969V25.5469H156.039ZM153.828 23.3359C153.828 23.0286 153.932 22.7734 154.141 22.5703C154.354 22.3672 154.641 22.2656 155 22.2656C155.359 22.2656 155.643 22.3672 155.852 22.5703C156.065 22.7734 156.172 23.0286 156.172 23.3359C156.172 23.638 156.065 23.8906 155.852 24.0938C155.643 24.2969 155.359 24.3984 155 24.3984C154.641 24.3984 154.354 24.2969 154.141 24.0938C153.932 23.8906 153.828 23.638 153.828 23.3359ZM166.289 29.1875V30.5H162.875V29.1875H166.289ZM165.469 32.5312C165.76 32.5312 166.021 32.474 166.25 32.3594C166.479 32.2448 166.661 32.0833 166.797 31.875C166.938 31.6667 167.013 31.4245 167.023 31.1484H168.969C168.958 31.7214 168.797 32.2344 168.484 32.6875C168.172 33.1406 167.755 33.5 167.234 33.7656C166.719 34.026 166.141 34.1562 165.5 34.1562C164.849 34.1562 164.281 34.0469 163.797 33.8281C163.312 33.6094 162.909 33.3047 162.586 32.9141C162.268 32.5234 162.029 32.0703 161.867 31.5547C161.711 31.0391 161.633 30.487 161.633 29.8984V29.6484C161.633 29.0599 161.711 28.5078 161.867 27.9922C162.029 27.4766 162.268 27.0234 162.586 26.6328C162.909 26.2422 163.312 25.9375 163.797 25.7188C164.281 25.5 164.844 25.3906 165.484 25.3906C166.167 25.3906 166.766 25.5234 167.281 25.7891C167.802 26.0547 168.211 26.4297 168.508 26.9141C168.805 27.3984 168.958 27.9688 168.969 28.625H167.023C167.013 28.3229 166.945 28.0521 166.82 27.8125C166.695 27.5729 166.518 27.3802 166.289 27.2344C166.06 27.0885 165.781 27.0156 165.453 27.0156C165.099 27.0156 164.807 27.0885 164.578 27.2344C164.349 27.3802 164.169 27.5807 164.039 27.8359C163.914 28.0859 163.826 28.3672 163.773 28.6797C163.721 28.987 163.695 29.3099 163.695 29.6484V29.8984C163.695 30.2422 163.721 30.5703 163.773 30.8828C163.826 31.1953 163.914 31.4766 164.039 31.7266C164.169 31.9714 164.349 32.1667 164.578 32.3125C164.812 32.4583 165.109 32.5312 165.469 32.5312ZM176.414 27.1719V37.25H174.344V25.5469H176.258L176.414 27.1719ZM181.844 29.6875V29.8516C181.844 30.4661 181.771 31.0365 181.625 31.5625C181.484 32.0833 181.276 32.5391 181 32.9297C180.724 33.3151 180.38 33.6172 179.969 33.8359C179.562 34.0495 179.094 34.1562 178.562 34.1562C178.042 34.1562 177.589 34.0573 177.203 33.8594C176.818 33.6562 176.492 33.3698 176.227 33C175.961 32.6302 175.747 32.2005 175.586 31.7109C175.43 31.2161 175.312 30.6771 175.234 30.0938V29.5703C175.312 28.9505 175.43 28.388 175.586 27.8828C175.747 27.3724 175.961 26.9323 176.227 26.5625C176.492 26.1875 176.815 25.8984 177.195 25.6953C177.581 25.4922 178.031 25.3906 178.547 25.3906C179.083 25.3906 179.555 25.4922 179.961 25.6953C180.372 25.8984 180.719 26.1901 181 26.5703C181.281 26.9505 181.492 27.4036 181.633 27.9297C181.773 28.4557 181.844 29.0417 181.844 29.6875ZM179.773 29.8516V29.6875C179.773 29.3125 179.74 28.9661 179.672 28.6484C179.604 28.3255 179.5 28.0443 179.359 27.8047C179.219 27.5599 179.036 27.3698 178.812 27.2344C178.589 27.099 178.318 27.0312 178 27.0312C177.682 27.0312 177.409 27.0833 177.18 27.1875C176.951 27.2917 176.763 27.4401 176.617 27.6328C176.471 27.8255 176.357 28.0547 176.273 28.3203C176.195 28.5807 176.143 28.8698 176.117 29.1875V30.4844C176.164 30.8698 176.255 31.2161 176.391 31.5234C176.526 31.8307 176.724 32.0755 176.984 32.2578C177.25 32.4401 177.594 32.5312 178.016 32.5312C178.333 32.5312 178.604 32.4609 178.828 32.3203C179.052 32.1797 179.234 31.987 179.375 31.7422C179.516 31.4922 179.617 31.2057 179.68 30.8828C179.742 30.5599 179.773 30.2161 179.773 29.8516ZM188.008 32.2031V28.3047C188.008 28.0182 187.958 27.7708 187.859 27.5625C187.76 27.3542 187.609 27.1927 187.406 27.0781C187.203 26.9635 186.945 26.9062 186.633 26.9062C186.357 26.9062 186.115 26.9531 185.906 27.0469C185.703 27.1406 185.547 27.2734 185.438 27.4453C185.328 27.612 185.273 27.8047 185.273 28.0234H183.203C183.203 27.6745 183.286 27.3438 183.453 27.0312C183.62 26.7135 183.857 26.4323 184.164 26.1875C184.477 25.9375 184.849 25.7422 185.281 25.6016C185.719 25.4609 186.208 25.3906 186.75 25.3906C187.391 25.3906 187.961 25.5 188.461 25.7188C188.966 25.9323 189.362 26.2552 189.648 26.6875C189.94 27.1198 190.086 27.6641 190.086 28.3203V32.0078C190.086 32.4297 190.112 32.7917 190.164 33.0938C190.221 33.3906 190.305 33.6484 190.414 33.8672V34H188.312C188.214 33.7865 188.138 33.5156 188.086 33.1875C188.034 32.8542 188.008 32.526 188.008 32.2031ZM188.297 28.8516L188.312 30.0781H187.008C186.685 30.0781 186.401 30.112 186.156 30.1797C185.911 30.2422 185.711 30.3359 185.555 30.4609C185.398 30.5807 185.281 30.7266 185.203 30.8984C185.125 31.0651 185.086 31.2552 185.086 31.4688C185.086 31.6771 185.133 31.8646 185.227 32.0312C185.326 32.1979 185.466 32.3307 185.648 32.4297C185.836 32.5234 186.055 32.5703 186.305 32.5703C186.669 32.5703 186.987 32.4974 187.258 32.3516C187.529 32.2005 187.74 32.0182 187.891 31.8047C188.042 31.5911 188.122 31.388 188.133 31.1953L188.727 32.0859C188.654 32.2995 188.544 32.526 188.398 32.7656C188.253 33.0052 188.065 33.2292 187.836 33.4375C187.607 33.6458 187.331 33.8177 187.008 33.9531C186.685 34.0885 186.31 34.1562 185.883 34.1562C185.336 34.1562 184.846 34.0469 184.414 33.8281C183.982 33.6094 183.641 33.3099 183.391 32.9297C183.141 32.5495 183.016 32.1172 183.016 31.6328C183.016 31.1849 183.099 30.7891 183.266 30.4453C183.432 30.1016 183.68 29.8125 184.008 29.5781C184.336 29.3385 184.742 29.1589 185.227 29.0391C185.716 28.9141 186.276 28.8516 186.906 28.8516H188.297ZM194.148 25.5469V34H192.086V25.5469H194.148ZM199.656 25.5469L195.93 30.7344H193.734L193.477 28.8438H195L197.055 25.5469H199.656ZM197.18 34L194.867 30.375L196.586 29.2969L199.922 34H197.18ZM204.539 34.1562C203.898 34.1562 203.323 34.0521 202.812 33.8438C202.302 33.6354 201.867 33.3464 201.508 32.9766C201.154 32.6016 200.88 32.1667 200.688 31.6719C200.5 31.1719 200.406 30.6354 200.406 30.0625V29.75C200.406 29.099 200.5 28.5078 200.688 27.9766C200.875 27.4401 201.141 26.9792 201.484 26.5938C201.828 26.2083 202.24 25.9115 202.719 25.7031C203.198 25.4948 203.727 25.3906 204.305 25.3906C204.904 25.3906 205.432 25.4922 205.891 25.6953C206.349 25.8932 206.732 26.1745 207.039 26.5391C207.346 26.9036 207.578 27.3411 207.734 27.8516C207.891 28.3568 207.969 28.9167 207.969 29.5312V30.3984H201.344V28.9766H205.938V28.8203C205.927 28.4922 205.865 28.1927 205.75 27.9219C205.635 27.6458 205.458 27.4271 205.219 27.2656C204.979 27.099 204.669 27.0156 204.289 27.0156C203.982 27.0156 203.714 27.0833 203.484 27.2188C203.26 27.349 203.073 27.5365 202.922 27.7812C202.776 28.0208 202.667 28.3073 202.594 28.6406C202.521 28.974 202.484 29.3438 202.484 29.75V30.0625C202.484 30.4167 202.531 30.7448 202.625 31.0469C202.724 31.349 202.867 31.612 203.055 31.8359C203.247 32.0547 203.477 32.2266 203.742 32.3516C204.013 32.4714 204.32 32.5312 204.664 32.5312C205.096 32.5312 205.487 32.4479 205.836 32.2812C206.19 32.1094 206.497 31.8568 206.758 31.5234L207.797 32.6016C207.62 32.862 207.38 33.112 207.078 33.3516C206.781 33.5911 206.422 33.7865 206 33.9375C205.578 34.0833 205.091 34.1562 204.539 34.1562ZM213.359 25.5469V34H211.289V25.5469H213.359ZM216.109 25.5469V27.1562H208.586V25.5469H216.109ZM219.406 31.0547L222.484 25.5469H224.555V34H222.484V28.4844L219.406 34H217.336V25.5469H219.406V31.0547ZM238.727 27.5703V29.2109H230.688V27.5703H238.727ZM100.555 49.9688H98.9062V48.9844H100.164C100.471 48.9844 100.716 48.9427 100.898 48.8594C101.086 48.776 101.219 48.6589 101.297 48.5078C101.38 48.3568 101.422 48.1823 101.422 47.9844C101.422 47.8073 101.383 47.6406 101.305 47.4844C101.227 47.3229 101.096 47.1927 100.914 47.0938C100.732 46.9896 100.479 46.9375 100.156 46.9375C99.8906 46.9375 99.6536 46.9792 99.4453 47.0625C99.237 47.1458 99.0729 47.263 98.9531 47.4141C98.8333 47.5651 98.7734 47.7448 98.7734 47.9531H96.7031C96.7031 47.4219 96.8542 46.9661 97.1562 46.5859C97.4635 46.2057 97.8724 45.9141 98.3828 45.7109C98.8932 45.5026 99.4531 45.3984 100.062 45.3984C100.589 45.3984 101.062 45.4531 101.484 45.5625C101.906 45.6667 102.266 45.8229 102.562 46.0312C102.859 46.2396 103.089 46.4974 103.25 46.8047C103.411 47.1068 103.492 47.4583 103.492 47.8594C103.492 48.1458 103.424 48.4167 103.289 48.6719C103.154 48.9271 102.958 49.1536 102.703 49.3516C102.448 49.5443 102.138 49.6953 101.773 49.8047C101.414 49.9141 101.008 49.9688 100.555 49.9688ZM98.9062 49.4062H100.555C101.06 49.4062 101.503 49.4557 101.883 49.5547C102.268 49.6484 102.591 49.7891 102.852 49.9766C103.112 50.1641 103.307 50.3958 103.438 50.6719C103.573 50.9427 103.641 51.2552 103.641 51.6094C103.641 52.0104 103.552 52.3698 103.375 52.6875C103.203 53 102.958 53.2656 102.641 53.4844C102.323 53.7031 101.945 53.8698 101.508 53.9844C101.07 54.099 100.589 54.1562 100.062 54.1562C99.4948 54.1562 98.9427 54.0625 98.4062 53.875C97.875 53.6875 97.4349 53.3984 97.0859 53.0078C96.7422 52.6172 96.5703 52.1146 96.5703 51.5H98.6406C98.6406 51.6979 98.7005 51.8828 98.8203 52.0547C98.9401 52.2266 99.112 52.3646 99.3359 52.4688C99.5651 52.5677 99.8411 52.6172 100.164 52.6172C100.492 52.6172 100.76 52.5651 100.969 52.4609C101.177 52.3568 101.328 52.2188 101.422 52.0469C101.521 51.8698 101.57 51.6849 101.57 51.4922C101.57 51.2266 101.518 51.013 101.414 50.8516C101.315 50.6849 101.159 50.5625 100.945 50.4844C100.737 50.4062 100.477 50.3672 100.164 50.3672H98.9062V49.4062ZM108.75 49.8594V49.6953C108.75 49.0755 108.839 48.5052 109.016 47.9844C109.193 47.4583 109.451 47.0026 109.789 46.6172C110.128 46.2318 110.542 45.9323 111.031 45.7188C111.521 45.5 112.078 45.3906 112.703 45.3906C113.339 45.3906 113.901 45.5 114.391 45.7188C114.885 45.9323 115.302 46.2318 115.641 46.6172C115.979 47.0026 116.237 47.4583 116.414 47.9844C116.591 48.5052 116.68 49.0755 116.68 49.6953V49.8594C116.68 50.474 116.591 51.0443 116.414 51.5703C116.237 52.0911 115.979 52.5469 115.641 52.9375C115.302 53.3229 114.888 53.6224 114.398 53.8359C113.909 54.0495 113.349 54.1562 112.719 54.1562C112.094 54.1562 111.534 54.0495 111.039 53.8359C110.544 53.6224 110.128 53.3229 109.789 52.9375C109.451 52.5469 109.193 52.0911 109.016 51.5703C108.839 51.0443 108.75 50.474 108.75 49.8594ZM110.812 49.6953V49.8594C110.812 50.2292 110.849 50.5755 110.922 50.8984C110.995 51.2214 111.107 51.5052 111.258 51.75C111.409 51.9948 111.604 52.1875 111.844 52.3281C112.089 52.4635 112.38 52.5312 112.719 52.5312C113.052 52.5312 113.339 52.4635 113.578 52.3281C113.818 52.1875 114.013 51.9948 114.164 51.75C114.32 51.5052 114.435 51.2214 114.508 50.8984C114.581 50.5755 114.617 50.2292 114.617 49.8594V49.6953C114.617 49.3307 114.581 48.9896 114.508 48.6719C114.435 48.349 114.32 48.0651 114.164 47.8203C114.013 47.5703 113.815 47.375 113.57 47.2344C113.331 47.0885 113.042 47.0156 112.703 47.0156C112.37 47.0156 112.083 47.0885 111.844 47.2344C111.604 47.375 111.409 47.5703 111.258 47.8203C111.107 48.0651 110.995 48.349 110.922 48.6719C110.849 48.9896 110.812 49.3307 110.812 49.6953ZM120.242 47.1719V57.25H118.172V45.5469H120.086L120.242 47.1719ZM125.672 49.6875V49.8516C125.672 50.4661 125.599 51.0365 125.453 51.5625C125.312 52.0833 125.104 52.5391 124.828 52.9297C124.552 53.3151 124.208 53.6172 123.797 53.8359C123.391 54.0495 122.922 54.1562 122.391 54.1562C121.87 54.1562 121.417 54.0573 121.031 53.8594C120.646 53.6562 120.32 53.3698 120.055 53C119.789 52.6302 119.576 52.2005 119.414 51.7109C119.258 51.2161 119.141 50.6771 119.062 50.0938V49.5703C119.141 48.9505 119.258 48.388 119.414 47.8828C119.576 47.3724 119.789 46.9323 120.055 46.5625C120.32 46.1875 120.643 45.8984 121.023 45.6953C121.409 45.4922 121.859 45.3906 122.375 45.3906C122.911 45.3906 123.383 45.4922 123.789 45.6953C124.201 45.8984 124.547 46.1901 124.828 46.5703C125.109 46.9505 125.32 47.4036 125.461 47.9297C125.602 48.4557 125.672 49.0417 125.672 49.6875ZM123.602 49.8516V49.6875C123.602 49.3125 123.568 48.9661 123.5 48.6484C123.432 48.3255 123.328 48.0443 123.188 47.8047C123.047 47.5599 122.865 47.3698 122.641 47.2344C122.417 47.099 122.146 47.0312 121.828 47.0312C121.51 47.0312 121.237 47.0833 121.008 47.1875C120.779 47.2917 120.591 47.4401 120.445 47.6328C120.299 47.8255 120.185 48.0547 120.102 48.3203C120.023 48.5807 119.971 48.8698 119.945 49.1875V50.4844C119.992 50.8698 120.083 51.2161 120.219 51.5234C120.354 51.8307 120.552 52.0755 120.812 52.2578C121.078 52.4401 121.422 52.5312 121.844 52.5312C122.161 52.5312 122.432 52.4609 122.656 52.3203C122.88 52.1797 123.062 51.987 123.203 51.7422C123.344 51.4922 123.445 51.2057 123.508 50.8828C123.57 50.5599 123.602 50.2161 123.602 49.8516ZM129.383 45.5469V54H127.32V45.5469H129.383ZM134.891 45.5469L131.164 50.7344H128.969L128.711 48.8438H130.234L132.289 45.5469H134.891ZM132.414 54L130.102 50.375L131.82 49.2969L135.156 54H132.414ZM138.289 45.5469V54H136.219V45.5469H138.289ZM136.078 43.3359C136.078 43.0286 136.182 42.7734 136.391 42.5703C136.604 42.3672 136.891 42.2656 137.25 42.2656C137.609 42.2656 137.893 42.3672 138.102 42.5703C138.315 42.7734 138.422 43.0286 138.422 43.3359C138.422 43.638 138.315 43.8906 138.102 44.0938C137.893 44.2969 137.609 44.3984 137.25 44.3984C136.891 44.3984 136.604 44.2969 136.391 44.0938C136.182 43.8906 136.078 43.638 136.078 43.3359ZM144.414 50.4219H141.734L141.719 49.0234H143.922C144.25 49.0234 144.518 48.9896 144.727 48.9219C144.935 48.8542 145.089 48.7526 145.188 48.6172C145.292 48.4818 145.344 48.3177 145.344 48.125C145.344 47.9583 145.312 47.8151 145.25 47.6953C145.188 47.5703 145.094 47.4688 144.969 47.3906C144.849 47.3125 144.695 47.2552 144.508 47.2188C144.326 47.1771 144.112 47.1562 143.867 47.1562H142.469V54H140.398V45.5469H143.867C144.414 45.5469 144.906 45.5964 145.344 45.6953C145.781 45.7891 146.154 45.9323 146.461 46.125C146.768 46.3177 147.003 46.5625 147.164 46.8594C147.331 47.151 147.414 47.4948 147.414 47.8906C147.414 48.151 147.357 48.3958 147.242 48.625C147.128 48.8542 146.958 49.0573 146.734 49.2344C146.51 49.4115 146.234 49.5573 145.906 49.6719C145.578 49.7812 145.203 49.849 144.781 49.875L144.414 50.4219ZM144.414 54H141.18L141.945 52.3906H144.414C144.716 52.3906 144.966 52.3542 145.164 52.2812C145.362 52.2031 145.508 52.0911 145.602 51.9453C145.701 51.7995 145.75 51.6224 145.75 51.4141C145.75 51.2109 145.703 51.0365 145.609 50.8906C145.521 50.7396 145.378 50.625 145.18 50.5469C144.987 50.4635 144.732 50.4219 144.414 50.4219H142.281L142.297 49.0234H144.773L145.32 49.5781C145.883 49.6146 146.349 49.7292 146.719 49.9219C147.089 50.1094 147.365 50.349 147.547 50.6406C147.729 50.9271 147.82 51.2422 147.82 51.5859C147.82 51.987 147.745 52.3385 147.594 52.6406C147.443 52.9427 147.221 53.1953 146.93 53.3984C146.638 53.5964 146.281 53.7474 145.859 53.8516C145.438 53.9505 144.956 54 144.414 54ZM156.773 52.5312C157.065 52.5312 157.326 52.474 157.555 52.3594C157.784 52.2448 157.966 52.0833 158.102 51.875C158.242 51.6667 158.318 51.4245 158.328 51.1484H160.273C160.263 51.7214 160.102 52.2344 159.789 52.6875C159.477 53.1406 159.06 53.5 158.539 53.7656C158.023 54.026 157.445 54.1562 156.805 54.1562C156.154 54.1562 155.586 54.0469 155.102 53.8281C154.617 53.6094 154.214 53.3047 153.891 52.9141C153.573 52.5234 153.333 52.0703 153.172 51.5547C153.016 51.0391 152.938 50.487 152.938 49.8984V49.6484C152.938 49.0599 153.016 48.5078 153.172 47.9922C153.333 47.4766 153.573 47.0234 153.891 46.6328C154.214 46.2422 154.617 45.9375 155.102 45.7188C155.586 45.5 156.151 45.3906 156.797 45.3906C157.479 45.3906 158.078 45.5234 158.594 45.7891C159.115 46.0547 159.521 46.4297 159.812 46.9141C160.109 47.3984 160.263 47.9688 160.273 48.625H158.328C158.318 48.3229 158.25 48.0521 158.125 47.8125C158 47.5729 157.823 47.3802 157.594 47.2344C157.365 47.0885 157.086 47.0156 156.758 47.0156C156.409 47.0156 156.117 47.0885 155.883 47.2344C155.654 47.3802 155.474 47.5807 155.344 47.8359C155.219 48.0859 155.13 48.3672 155.078 48.6797C155.031 48.987 155.008 49.3099 155.008 49.6484V49.8984C155.008 50.2422 155.031 50.5703 155.078 50.8828C155.13 51.1953 155.219 51.4766 155.344 51.7266C155.474 51.9714 155.654 52.1667 155.883 52.3125C156.117 52.4583 156.414 52.5312 156.773 52.5312ZM166.719 51.5625L169.094 45.5469H170.82L167.422 54H166.023L162.633 45.5469H164.367L166.719 51.5625ZM163.859 45.5469V54H161.789V45.5469H163.859ZM169.617 54V45.5469H171.688V54H169.617ZM178.398 52.2031V48.3047C178.398 48.0182 178.349 47.7708 178.25 47.5625C178.151 47.3542 178 47.1927 177.797 47.0781C177.594 46.9635 177.336 46.9062 177.023 46.9062C176.747 46.9062 176.505 46.9531 176.297 47.0469C176.094 47.1406 175.938 47.2734 175.828 47.4453C175.719 47.612 175.664 47.8047 175.664 48.0234H173.594C173.594 47.6745 173.677 47.3438 173.844 47.0312C174.01 46.7135 174.247 46.4323 174.555 46.1875C174.867 45.9375 175.24 45.7422 175.672 45.6016C176.109 45.4609 176.599 45.3906 177.141 45.3906C177.781 45.3906 178.352 45.5 178.852 45.7188C179.357 45.9323 179.753 46.2552 180.039 46.6875C180.331 47.1198 180.477 47.6641 180.477 48.3203V52.0078C180.477 52.4297 180.503 52.7917 180.555 53.0938C180.612 53.3906 180.695 53.6484 180.805 53.8672V54H178.703C178.604 53.7865 178.529 53.5156 178.477 53.1875C178.424 52.8542 178.398 52.526 178.398 52.2031ZM178.688 48.8516L178.703 50.0781H177.398C177.076 50.0781 176.792 50.112 176.547 50.1797C176.302 50.2422 176.102 50.3359 175.945 50.4609C175.789 50.5807 175.672 50.7266 175.594 50.8984C175.516 51.0651 175.477 51.2552 175.477 51.4688C175.477 51.6771 175.523 51.8646 175.617 52.0312C175.716 52.1979 175.857 52.3307 176.039 52.4297C176.227 52.5234 176.445 52.5703 176.695 52.5703C177.06 52.5703 177.378 52.4974 177.648 52.3516C177.919 52.2005 178.13 52.0182 178.281 51.8047C178.432 51.5911 178.513 51.388 178.523 51.1953L179.117 52.0859C179.044 52.2995 178.935 52.526 178.789 52.7656C178.643 53.0052 178.456 53.2292 178.227 53.4375C177.997 53.6458 177.721 53.8177 177.398 53.9531C177.076 54.0885 176.701 54.1562 176.273 54.1562C175.727 54.1562 175.237 54.0469 174.805 53.8281C174.372 53.6094 174.031 53.3099 173.781 52.9297C173.531 52.5495 173.406 52.1172 173.406 51.6328C173.406 51.1849 173.49 50.7891 173.656 50.4453C173.823 50.1016 174.07 49.8125 174.398 49.5781C174.727 49.3385 175.133 49.1589 175.617 49.0391C176.107 48.9141 176.667 48.8516 177.297 48.8516H178.688ZM185.219 50.7031L181.781 45.5469H184.328L186.211 48.8047H187.844L187.586 50.7031H185.219ZM186.25 50.375L184.203 54H181.695L184.625 49.2969L186.25 50.375ZM189.141 45.5469V54H187.078V45.5469H189.141ZM194.461 45.5469L191.016 50.7031H188.648L188.391 48.8047H190.023L191.906 45.5469H194.461ZM192.031 54L189.984 50.375L191.664 49.2969L194.586 54H192.031ZM197.812 51.0547L200.891 45.5469H202.961V54H200.891V48.4844L197.812 54H195.742V45.5469H197.812V51.0547ZM208.938 45.5469V54H206.867V45.5469H208.938ZM211.688 45.5469V47.1562H204.164V45.5469H211.688ZM214.984 51.0547L218.062 45.5469H220.133V54H218.062V48.4844L214.984 54H212.914V45.5469H214.984V51.0547ZM99.1328 65.5469V74H97.0703V65.5469H99.1328ZM104.641 65.5469L100.914 70.7344H98.7188L98.4609 68.8438H99.9844L102.039 65.5469H104.641ZM102.164 74L99.8516 70.375L101.57 69.2969L104.906 74H102.164ZM105.172 69.8594V69.6953C105.172 69.0755 105.26 68.5052 105.438 67.9844C105.615 67.4583 105.872 67.0026 106.211 66.6172C106.549 66.2318 106.964 65.9323 107.453 65.7188C107.943 65.5 108.5 65.3906 109.125 65.3906C109.76 65.3906 110.323 65.5 110.812 65.7188C111.307 65.9323 111.724 66.2318 112.062 66.6172C112.401 67.0026 112.659 67.4583 112.836 67.9844C113.013 68.5052 113.102 69.0755 113.102 69.6953V69.8594C113.102 70.474 113.013 71.0443 112.836 71.5703C112.659 72.0911 112.401 72.5469 112.062 72.9375C111.724 73.3229 111.31 73.6224 110.82 73.8359C110.331 74.0495 109.771 74.1562 109.141 74.1562C108.516 74.1562 107.956 74.0495 107.461 73.8359C106.966 73.6224 106.549 73.3229 106.211 72.9375C105.872 72.5469 105.615 72.0911 105.438 71.5703C105.26 71.0443 105.172 70.474 105.172 69.8594ZM107.234 69.6953V69.8594C107.234 70.2292 107.271 70.5755 107.344 70.8984C107.417 71.2214 107.529 71.5052 107.68 71.75C107.831 71.9948 108.026 72.1875 108.266 72.3281C108.51 72.4635 108.802 72.5312 109.141 72.5312C109.474 72.5312 109.76 72.4635 110 72.3281C110.24 72.1875 110.435 71.9948 110.586 71.75C110.742 71.5052 110.857 71.2214 110.93 70.8984C111.003 70.5755 111.039 70.2292 111.039 69.8594V69.6953C111.039 69.3307 111.003 68.9896 110.93 68.6719C110.857 68.349 110.742 68.0651 110.586 67.8203C110.435 67.5703 110.237 67.375 109.992 67.2344C109.753 67.0885 109.464 67.0156 109.125 67.0156C108.792 67.0156 108.505 67.0885 108.266 67.2344C108.026 67.375 107.831 67.5703 107.68 67.8203C107.529 68.0651 107.417 68.349 107.344 68.6719C107.271 68.9896 107.234 69.3307 107.234 69.6953ZM118.5 65.5469V74H116.43V65.5469H118.5ZM121.25 65.5469V67.1562H113.727V65.5469H121.25ZM127.656 65.5469V67.1797H123.516V65.5469H127.656ZM129.211 65.5469V74H127.148V65.5469H129.211ZM123 65.5469H125.039L124.812 69.7656C124.776 70.3854 124.711 70.9297 124.617 71.3984C124.523 71.862 124.398 72.2604 124.242 72.5938C124.086 72.9219 123.896 73.1901 123.672 73.3984C123.448 73.6068 123.188 73.7604 122.891 73.8594C122.599 73.9531 122.271 74 121.906 74H121.273L121.25 72.3359L121.547 72.3125C121.729 72.2969 121.885 72.2474 122.016 72.1641C122.151 72.0807 122.266 71.9609 122.359 71.8047C122.458 71.6484 122.539 71.4479 122.602 71.2031C122.669 70.9531 122.721 70.6615 122.758 70.3281C122.799 69.9896 122.828 69.599 122.844 69.1562L123 65.5469ZM134.898 74.1562C134.258 74.1562 133.682 74.0521 133.172 73.8438C132.661 73.6354 132.227 73.3464 131.867 72.9766C131.513 72.6016 131.24 72.1667 131.047 71.6719C130.859 71.1719 130.766 70.6354 130.766 70.0625V69.75C130.766 69.099 130.859 68.5078 131.047 67.9766C131.234 67.4401 131.5 66.9792 131.844 66.5938C132.188 66.2083 132.599 65.9115 133.078 65.7031C133.557 65.4948 134.086 65.3906 134.664 65.3906C135.263 65.3906 135.792 65.4922 136.25 65.6953C136.708 65.8932 137.091 66.1745 137.398 66.5391C137.706 66.9036 137.938 67.3411 138.094 67.8516C138.25 68.3568 138.328 68.9167 138.328 69.5312V70.3984H131.703V68.9766H136.297V68.8203C136.286 68.4922 136.224 68.1927 136.109 67.9219C135.995 67.6458 135.818 67.4271 135.578 67.2656C135.339 67.099 135.029 67.0156 134.648 67.0156C134.341 67.0156 134.073 67.0833 133.844 67.2188C133.62 67.349 133.432 67.5365 133.281 67.7812C133.135 68.0208 133.026 68.3073 132.953 68.6406C132.88 68.974 132.844 69.3438 132.844 69.75V70.0625C132.844 70.4167 132.891 70.7448 132.984 71.0469C133.083 71.349 133.227 71.612 133.414 71.8359C133.607 72.0547 133.836 72.2266 134.102 72.3516C134.372 72.4714 134.68 72.5312 135.023 72.5312C135.456 72.5312 135.846 72.4479 136.195 72.2812C136.549 72.1094 136.857 71.8568 137.117 71.5234L138.156 72.6016C137.979 72.862 137.74 73.112 137.438 73.3516C137.141 73.5911 136.781 73.7865 136.359 73.9375C135.938 74.0833 135.451 74.1562 134.898 74.1562ZM143.719 65.5469V74H141.648V65.5469H143.719ZM146.469 65.5469V67.1562H138.945V65.5469H146.469ZM149.766 71.0547L152.844 65.5469H154.914V74H152.844V68.4844L149.766 74H147.695V65.5469H149.766V71.0547Z" fill="#707070"/>
<defs>
<radialGradient id="paint0_radial_19332_1266" cx="0" cy="0" r="1" gradientUnits="userSpaceOnUse" gradientTransform="translate(162.207 119.446) rotate(90) scale(4.5429 3.2252)">
<stop stop-color="#FFBBBB"/>
<stop offset="1" stop-color="#FFBBBB" stop-opacity="0"/>
</radialGradient>
<radialGradient id="paint1_radial_19332_1266" cx="0" cy="0" r="1" gradientUnits="userSpaceOnUse" gradientTransform="translate(148.546 118.983) rotate(90) scale(4.5429 3.2252)">
<stop stop-color="#FFBBBB"/>
<stop offset="1" stop-color="#FFBBBB" stop-opacity="0"/>
</radialGradient>
</defs>
</svg>
